<svg xmlns="http://www.w3.org/2000/svg" viewBox="0 0 478.53 96.59"><defs><style>.cls-1{fill:#5c8bb8;}.cls-2{fill:#e48cac;}</style></defs><title>logo</title><g id="レイヤー_2" data-name="レイヤー 2"><g id="logo"><path class="cls-1" d="M116.49,39.09a12.34,12.34,0,0,0,2.85,4.34c.6.6,1.39,1.29,2.08,1.87a13.93,13.93,0,0,0,1.25.86c.14.07.24.14.24.21s0,.05-.15.1-.24.1-.33.14a6.41,6.41,0,0,0-1.17.87,4.81,4.81,0,0,0-.75.79.42.42,0,0,1-.4.21c-.27,0-.7-.38-1-.67a8.15,8.15,0,0,1-1.79-2.71,16.16,16.16,0,0,1-1-6h-.24c0,1.92.09,6.76.14,8.72,0,.55,0,.93,0,1,0,.41-.07.6-.35.77a3.51,3.51,0,0,1-1.63.41c-.82,0-1.13-.24-1.13-.82,0-.14,0-.71,0-1.31.07-1.94.07-1.94.12-5a14.43,14.43,0,0,1-5.15,4.76,6.44,6.44,0,0,1-1.61.77.11.11,0,0,1-.12-.1s0-.09.1-.16a14.89,14.89,0,0,0,3.16-3.62A17.64,17.64,0,0,0,112,39.09h-2.78a1.79,1.79,0,0,1,.32,1A1.49,1.49,0,0,1,108,41.66c-.77,0-1.15-.36-1.15-1.06,0-.09,0-.48,0-.57a2.44,2.44,0,0,0-.79-2.13c0,1.31,0,2.32,0,3,0,3.83.07,6.63.07,8,0,.68-.86,1.15-2.06,1.15-.69,0-.91-.19-.91-.83,0-.17,0-1.2.1-3.74,0-1,0-1.22,0-3.42A13.08,13.08,0,0,1,101,45.1c-.6.6-.91.87-1,.87s-.14,0-.14-.12,0-.15.21-.39c1.3-1.89,2.71-7.08,3-11.13h-1.3a5.83,5.83,0,0,0-1.1.09c-.38-.45-.4-.5-.4-.55s.07-.16.19-.16l1.22,0h1.63c0-1.22,0-4.09-.07-5.43,0-.1,0-.12.11-.12a14.27,14.27,0,0,1,2.54.33c.58.12.82.29.82.55s-.17.41-.6.65c-.05,1.15-.05,1.89-.05,4h.36c.6-1.22.89-1.62,1.13-1.62.4,0,1.46,1.29,1.46,1.79,0,.24-.22.41-.51.41H106.1v3.16a4.66,4.66,0,0,1,2.32.81,17.41,17.41,0,0,0,1.12-7.16c0-.48,0-1.07,0-1.41,0-.07,0-.1.07-.1a10.92,10.92,0,0,1,1.51.29c1.29.31,1.67.51,1.67.84a.47.47,0,0,1-.14.29l-.36.31a14.2,14.2,0,0,1-.41,2.27h1.37V32.46c0-1.41,0-3.42-.07-4v-.17c0-.12,0-.17.19-.17a16.19,16.19,0,0,1,2.68.36c.5.12.77.31.77.55s-.2.43-.67.74l0,3.83h1.25c.86-1.39,1.46-2.1,1.74-2.1s.6.24,1.25.88,1,1.13,1,1.44-.21.38-.55.38h-4.67l0,4.31h2c1.06-1.63,1.39-2.1,1.68-2.1s.89.45,1.65,1.22a1.83,1.83,0,0,1,.62,1.05c0,.22-.23.38-.52.38Zm-4.77-4.86a8,8,0,0,1-3.16,4.17l.15.14h4.47l0-4.31Z"/><path class="cls-1" d="M142,33.51c.45-.57,1.39-1.67,1.7-2s.43-.43.62-.43c.34,0,.7.26,1.46,1s1.08,1.18,1.08,1.56-.26.48-.69.48h-7.31a21.77,21.77,0,0,0,1.89,8.09c1,2,2.54,3.43,3.72,3.43.57,0,1.12-.55,1.91-1.94.24-.41.27-.43.36-.43s.12,0,.12.14a8.23,8.23,0,0,1-.19.93c-.1.53-.19,1-.26,1.35a5.64,5.64,0,0,0-.15,1.24,1.82,1.82,0,0,0,.19.91,1.6,1.6,0,0,1,.15.7c0,.79-.72,1.36-1.75,1.36-2.13,0-5-2.39-6.66-5.65a41.81,41.81,0,0,1-4.55,2.3,34.81,34.81,0,0,1-6.13,2.15,2.2,2.2,0,0,1-1.15.43c-.48,0-.89-.93-1.63-3.66,2.28,0,2.88-.07,4.74-.14v-5c0-.36,0-.72,0-1h-1.61a21.25,21.25,0,0,0-2.39.12c-.34-.48-.36-.53-.36-.57a.17.17,0,0,1,.19-.17c.55,0,1.27,0,1.63,0h5.55c.15-.24.15-.24,1.08-1.58.41-.6.53-.72.82-.72s.45.09,1.31,1.27c.55.74.72,1,.72,1.22s-.24.38-.55.38h-2.63c.16.15.21.24.21.36s0,.19-.5.41c-.14.07-.19.16-.19.38l0,4.5a43.69,43.69,0,0,0,5.39-1c-1.17-2.61-1.75-5.19-2.27-9.84h-7.62c-1,0-2,0-3,.1-.41-.53-.43-.58-.43-.63a.17.17,0,0,1,.19-.17c.86.08,1.94.12,2.49.12h8.31c-.24-2.22-.36-3.76-.48-5.38,2.87.19,4,.5,4,1.05,0,.21-.14.43-.52.72l0,3.61Zm-.72-.86a1.24,1.24,0,0,1-1-.36c-.17-.21-.17-.21-.17-1.1a3.09,3.09,0,0,0-.5-2c-.07-.1-.07-.12-.07-.17s.07-.14.26-.14c2.13,0,3.42.74,3.42,2A1.84,1.84,0,0,1,141.27,32.65Z"/><path class="cls-1" d="M171.73,35.19a6.22,6.22,0,0,0-2.16,2.8.37.37,0,0,1-.4.29,9.58,9.58,0,0,1-4.46-2,10.28,10.28,0,0,1-4.07-6.51,20.89,20.89,0,0,1-8.55,7.88,15.54,15.54,0,0,1-3.45,1.24.12.12,0,0,1-.12-.12c0-.09,0-.09.38-.29,3.36-1.81,6.83-6.46,8.32-11.08a28.27,28.27,0,0,1,3.25.72c.82.19,1.18.43,1.18.81s-.2.45-.63.62c1.58,2.64,4.87,4.24,10.68,5.27.15,0,.22.07.22.15S171.87,35.09,171.73,35.19Zm-6.11,5.22c1.1-1.48,1.65-2.06,2-2.06a5.48,5.48,0,0,1,1.87,1c.57.4.93.86.93,1.17s-.26.48-.72.48H160c.46.22.63.36.63.58s-.2.45-.84.59c-1,1.49-1.39,2.13-2.9,4.24C160,46.3,162,46.16,164,46a13.43,13.43,0,0,0-2.47-2.78c-.14-.1-.17-.17-.17-.22s.05-.12.15-.12,1.15.24,2.44.58a9,9,0,0,1,4.48,2.51,3.2,3.2,0,0,1,.62,1.9A2,2,0,0,1,167,50c-1,0-1.3-.31-1.94-2a13.07,13.07,0,0,0-.58-1.24L161,48.05a53.35,53.35,0,0,1-7.48,1.63,4,4,0,0,1-1.39.31.75.75,0,0,1-.74-.5c-.38-1.1-.6-1.82-.91-2.92a1.31,1.31,0,0,1-.05-.22c0-.05,0-.07.12-.07s.67,0,.84,0c1,0,2.11.07,3.52.09a37.31,37.31,0,0,0,1.2-5.41H152a15.3,15.3,0,0,0-2.13.12c-.43-.53-.45-.58-.45-.62a.17.17,0,0,1,.19-.17c.53,0,1.22.07,1.55.07Zm-5-4.09c.83-1.37,1.12-1.73,1.38-1.73.58,0,2.21,1.44,2.21,1.94,0,.24-.22.36-.65.36h-6.68a13.13,13.13,0,0,0-1.77.1c-.41-.48-.43-.53-.43-.58a.17.17,0,0,1,.19-.17,9.47,9.47,0,0,0,1.08.08Z"/><path class="cls-1" d="M179.55,38.76a8.28,8.28,0,0,1,2.42.41,2.3,2.3,0,0,1,1.8,2,1.69,1.69,0,0,1-1.68,1.7,1.15,1.15,0,0,1-1-.5,3,3,0,0,1-.22-1,3.64,3.64,0,0,0-1.29-2.3c0,2,.1,4,.12,6.09,0,.57.09,3.11.09,3.35a1,1,0,0,1-.5,1,3,3,0,0,1-1.63.53c-.72,0-1-.24-1-.84,0-.12.05-.79.07-1.32.05-.86.1-2.22.13-3.9,0-1.25,0-2.54,0-3.57a19.76,19.76,0,0,1-3.23,2.35,2.11,2.11,0,0,1-.5.24.12.12,0,0,1-.12-.12c0-.05,0-.1.24-.29a26.2,26.2,0,0,0,2.1-2.32,20.37,20.37,0,0,0,1.44-2.18l0-1.2c0-.12,0-.17.09-.17a3.31,3.31,0,0,1,.79.31,24,24,0,0,0,2.06-3.68h-3.57c-.76,0-1.53,0-2.3.09-.31-.45-.33-.5-.33-.55a.17.17,0,0,1,.19-.17,7,7,0,0,0,.93.07h2.21V31.17c0-1.18,0-2.52,0-2.76s0-.24.22-.24,1.86.27,2.73.43c.48.1.72.27.72.56s-.32.47-.75.74c0,.43,0,.86,0,1.29s0,1.08,0,1.6h.48c.77-1.19,1-1.38,1.25-1.38.59,0,2.17,1.43,2.17,2.06,0,.33-.28.5-.91.69-.71,1-2.1,2.61-2.92,3.52.19.12.29.22.29.31s0,.22-.26.29a.29.29,0,0,0-.2.19ZM191.29,48c.57-.82,1.36-1.87,1.58-2.13s.36-.36.57-.36c.39,0,.72.29,1.37,1a3.27,3.27,0,0,1,1,1.7c0,.26-.21.43-.62.43H182.88c-.55,0-1.15,0-1.7.07-.43-.48-.45-.52-.45-.57a.17.17,0,0,1,.19-.17c.41,0,.93,0,1.17,0h4.53c0-2.4.07-5,.07-7.54,0-1,0-2,0-3h-2.3c-.55,0-1.15,0-1.7.08-.41-.51-.43-.56-.43-.6a.17.17,0,0,1,.19-.17c.48,0,1.1.07,1.39.07h2.85c-.05-3.81-.07-6.54-.12-7.85,0-.2,0-.24.19-.24s1.73.16,2.33.26c1.1.19,1.46.36,1.46.74s-.39.62-.79.84c0,1.32,0,2.2-.08,6.25h1.15c.46-.69.8-1.22,1.13-1.75s.48-.62.74-.62.63.24,1.27.86c.74.79,1.13,1.34,1.13,1.7s-.27.43-.55.43h-4.87v3.67c0,1.65,0,2.7,0,6.92Z"/><path class="cls-1" d="M119.26,77.67c1.21-1.81,2.27-3,2.67-3s1.15.49,2.3,1.49a3.24,3.24,0,0,1,1.26,1.78c0,.32-.34.55-.8.55H102.51c-.94,0-2,0-2.9.11-.6-.74-.63-.8-.63-.86a.21.21,0,0,1,.23-.2c.89.09,2,.14,2.59.14h7.87c0-2.29,0-4.36,0-5.2,0-8.07,0-8.07-.09-12.52-.06-2.87-.06-2.87-.06-3.85,0-.43,0-1,0-1.26l0-.78c0-.11.09-.17.23-.17s1.33.09,2.82.29,2.5.4,2.5,1.09c0,.37,0,.37-1.18,1.15,0,2.58,0,4-.06,7.87h3.65c1.38-2.18,1.9-2.82,2.3-2.82s1.18.46,2.12,1.41c.78.8,1.21,1.41,1.21,1.72s-.32.52-.69.52H113.8v5.46c0,1.89,0,3.79,0,7.09Z"/><path class="cls-1" d="M138.14,56.07c1-1.32,1.15-1.46,1.44-1.46a5.54,5.54,0,0,1,1.89.92c.89.6,1.21.95,1.21,1.29s-.09.43-.49.63c-.2.09-.34.29-.34.83,0,.26.11,3.91.14,5.12v.08c0,.89-1.06,1.47-2.61,1.47-.78,0-1.07-.2-1.07-.75v-.66h-4.45L136,64c.83.17,1.12.37,1.12.72s-.09.34-.63.66c-.12.54-.35,1.44-.61,2.24h2.07c.81-1,1.26-1.38,1.55-1.38a5.37,5.37,0,0,1,1.87,1.06c.66.55.86.81.86,1.15s-.09.29-.77.69A28.27,28.27,0,0,1,140,76.87a4.29,4.29,0,0,1-4.14,2.79c-.77,0-1.61-.44-1.49-1.15a1.26,1.26,0,0,0-.35-1,5.25,5.25,0,0,0-1.26-1.21c-.23-.17-.26-.26-.26-.31s.06-.09.14-.09a.48.48,0,0,1,.23.06,8.67,8.67,0,0,0,2.19.4,1.7,1.7,0,0,0,1.84-1.21,23.31,23.31,0,0,0,1.2-6.89H135.7a17,17,0,0,1-4.91,8.42A10.23,10.23,0,0,1,127.6,79c-.09,0-.14,0-.14-.11s.05-.15.25-.35a13.91,13.91,0,0,0,2.91-4.68,31,31,0,0,0,2.24-9.1,4.35,4.35,0,0,1-1.64.37c-.63,0-.81-.14-.81-.75l.09-4.08V54.81c0-.2,0-.26.14-.26a10.1,10.1,0,0,1,2.73.78,1.62,1.62,0,0,1,1,.74Zm.17,1.12c0-.34-.08-.43-.31-.49h-3.79a1,1,0,0,0-.38.89l0,5.26h4.45Zm9.11,16.12a1.15,1.15,0,0,1-.83,1.26,4.12,4.12,0,0,1-1.84.4c-.72,0-1-.2-1-.8,0-.35,0-.35.06-2.93.09-2.21.11-4.6.11-7.27,0-3,0-4.19-.05-5.54,0-.43,0-.72,0-1a.15.15,0,0,1,.17-.17,20.72,20.72,0,0,1,2.93.55c.72.23,1,.43,1,.77s-.18.58-.66.81c0,7.61.08,11.71.11,13.32Zm2.21-8.16c0-1.44-.11-7.38-.14-9.05,0-.43-.06-1.21-.06-1.52,0-.12.09-.17.2-.17a18.42,18.42,0,0,1,3.3.51c.72.2,1,.43,1,.81s-.12.43-.78.86l.2,19.85a2.75,2.75,0,0,1-1,2.64,4.69,4.69,0,0,1-3,1c-.89,0-1.26-.26-1.43-.89a1.84,1.84,0,0,0-.61-.89,8.25,8.25,0,0,0-1.78-1.21c-.11-.06-.29-.17-.29-.23s.06-.14.18-.14,1,0,1.35,0a4,4,0,0,0,2.3-.4c.48-.31.54-.57.54-2.38Z"/><path class="cls-1" d="M177.85,57.36c1.72-2.38,2-2.72,2.41-2.72.89,0,3.45,2.12,3.45,2.87,0,.37-.26.54-.72.54H163.57c-.49.21-.69.46-.69.9v3.59a52.24,52.24,0,0,1-.57,9.7,11.77,11.77,0,0,1-3.71,6.7,4.35,4.35,0,0,1-1.32.92.13.13,0,0,1-.14-.15c0-.08,0-.08.34-.49,1.47-1.78,1.84-3.76,1.84-9.42V63.57c0-.81-.09-4.25-.12-5.37s0-1.32,0-1.84v-.17c0-.32,0-.38.28-.38a13.4,13.4,0,0,1,2.76.69,3.07,3.07,0,0,1,1.5.86h5.43l-.06-3.5c0-.17.06-.23.23-.23a20.55,20.55,0,0,1,2.87.29c1.46.23,2,.49,2,1,0,.32-.2.52-.77.78l0,1.69Zm-8.62,12.87c0,1.24.06,5.58.11,7.93,0,.63-.08.89-.4,1.09a3.79,3.79,0,0,1-2.15.55c-.81,0-1.09-.29-1.09-1,0-.31.11-4.76.14-6,.09-3.27.09-3.48.12-5.46a10.89,10.89,0,0,1-3,2.36.14.14,0,0,1-.15-.15c0-.08,0-.11.12-.23a13.55,13.55,0,0,0,1.26-1.92A28.41,28.41,0,0,0,167,58.46c3.94,1.06,4.6,1.52,4.6,2,0,.37-.29.54-1,.63A21.35,21.35,0,0,1,169,63.6c.63.17.83.37.83.57s-.17.38-.6.61Zm10.71-5.11c1.47-2.44,1.58-2.61,2-2.61.69,0,2.52,2,2.52,2.81,0,.37-.28.49-1.06.49h-4c0,2.13,0,2.13.09,4.77l.08,4.91v1.18a2.92,2.92,0,0,1-.83,2.41,4.51,4.51,0,0,1-3.05,1c-.83,0-1.26-.17-1.32-.68a2.08,2.08,0,0,0-1-1.53,5.79,5.79,0,0,0-1.66-.86c-.23-.09-.29-.14-.29-.23s.06-.09.23-.09l.81.06c.28,0,.91.06,1.23.06,2,0,2-.12,2-2.27V65.81h-4.22a11.12,11.12,0,0,0-1.41.09c-.49-.55-.52-.61-.52-.66a.21.21,0,0,1,.23-.21,14.5,14.5,0,0,0,1.47.09h4.42c0-1.84,0-3,0-3.93s0-1.67-.06-2.24c0-.12.06-.18.21-.18A16.09,16.09,0,0,1,178,59c1.41.23,2.21.55,2.21,1.06,0,.32-.29.58-.83.81,0,.69-.06,2.09-.06,4.22Zm-7.06,7.81a1.66,1.66,0,0,1-1.38-.6c-.17-.26-.17-.26-.29-1.49a3.8,3.8,0,0,0-.89-2.67c-.11-.12-.17-.21-.17-.26s.06-.09.4-.09a9.75,9.75,0,0,1,2.18.49c1.61.52,2.33,1.52,2.33,2.7A2,2,0,0,1,172.88,72.93Z"/><path class="cls-1" d="M201,58.77a2.82,2.82,0,0,0,1.84-1,1.42,1.42,0,0,1,1.09-.43,5.85,5.85,0,0,1,2.82,1.24c1.87,1.18,2.33,1.84,2.33,2.58,0,.49-.23.84-1.1,1.3a1.87,1.87,0,0,0-1,1.35c-.72,2.67-1.38,5.45-2,8.24,1.72.81,2.15,1.47,2.15,2.24,0,1-1,1.7-2.67,1.7a18.88,18.88,0,0,1-2-.2,18.35,18.35,0,0,0-2.24-.12c-1.09,0-4.94.29-8,.63-.81.09-1.3.15-1.58.15s-.35-.09-.55-.38c-.54-.86-1.38-2.1-1.72-2.64a1.18,1.18,0,0,1-.23-.57c0-.15.08-.23.31-.23a6,6,0,0,1,.89.2,9.06,9.06,0,0,0,1.76.17c.92,0,1.92-.06,2.9-.14,2.15-.23,5.74-.61,7.06-.69.58-3.57.95-6.64,1.15-9.63a.3.3,0,0,0-.34-.31c-.43,0-1,0-1.55.08a66.85,66.85,0,0,0-7.82,1.18,4.41,4.41,0,0,0-.71.2,1.89,1.89,0,0,1-.69.2,1.38,1.38,0,0,1-.89-.54c-.81-.89-1.5-1.73-2-2.36a1.11,1.11,0,0,1-.28-.54c0-.15.11-.26.31-.26A99.26,99.26,0,0,0,201,58.77Z"/><path class="cls-1" d="M224.65,73.54c2.21,1.78,3,3.16,3,4a2.53,2.53,0,0,1-2.35,2.3,2.91,2.91,0,0,1-1.93-1.09,70.81,70.81,0,0,0-8.64-8.59c-.41-.32-.55-.46-.55-.63s.14-.23.32-.23C217.53,69.26,220.89,70.46,224.65,73.54Zm-.31-6.18a2,2,0,0,1-1.38.81,1.81,1.81,0,0,1-1.27-.64,42,42,0,0,0-6-4.68c-.31-.2-.4-.31-.4-.46a.33.33,0,0,1,.34-.26,36.24,36.24,0,0,1,4.34.38,6.6,6.6,0,0,1,3.71,1.61c1,.86,1.29,1.37,1.29,1.89A2,2,0,0,1,224.34,67.36Zm2.21-8.82a1.87,1.87,0,0,1-2,2.07,2.39,2.39,0,0,1-1.8-.86A14.32,14.32,0,0,0,217,56.16c-.31-.09-.43-.2-.43-.37s.09-.26.43-.35a11.75,11.75,0,0,1,2.93-.37C224,55.07,226.55,56.5,226.55,58.54Z"/><path class="cls-1" d="M247.5,73.42a3.9,3.9,0,0,0,1.06-.49,1.33,1.33,0,0,1,.6-.23c.2,0,.29,0,.75.29s1,.6,1.46.92a1.87,1.87,0,0,1,.89,1.7,1.48,1.48,0,0,1-1.4,1.6,4.6,4.6,0,0,1-.55-.08,26.75,26.75,0,0,0-6.26-.61,41.71,41.71,0,0,0-8.91.81,4.32,4.32,0,0,1-1,.17c-.09,0-.17,0-.37-.2a9.88,9.88,0,0,1-2-2.36,1.12,1.12,0,0,1-.14-.43.31.31,0,0,1,.31-.28l1,.08c.32,0,1.09.06,1.81.06s1.41,0,2.87-.12c1.64-.08,3.28-.2,4.91-.28.23-2.1.43-4.2.61-6.18a2.79,2.79,0,0,0,0-.37c0-.09,0-.12-.09-.12a2.61,2.61,0,0,0-.32.06c-2.21.35-4.36.66-6,.86-.29,0-.52.06-.63.06a.9.9,0,0,1-.63-.26,11.38,11.38,0,0,1-1.73-2,.6.6,0,0,1-.14-.32.27.27,0,0,1,.29-.29l.43.06a5.25,5.25,0,0,0,.83.06c.46,0,1.06,0,1.46-.06a29.35,29.35,0,0,0,5.58-1.12,5.15,5.15,0,0,0,1.46-.69,1.55,1.55,0,0,1,.78-.28,1.72,1.72,0,0,1,.89.31,11.65,11.65,0,0,1,2.1,1.55,1.53,1.53,0,0,1,.51,1c0,.37-.11.57-.51.89a.79.79,0,0,0-.29.46c-.78,2.41-1.35,4.34-1.84,6.14A13.29,13.29,0,0,0,247.5,73.42Z"/><path class="cls-1" d="M255.77,70.06a8.41,8.41,0,0,0,4.08.72h1c3.33-.09,7.64-.34,11.55-.66a6.88,6.88,0,0,0,2.18-.6,2.38,2.38,0,0,1,.89-.23,4.52,4.52,0,0,1,1.44.46,4.92,4.92,0,0,1,1.29.94A4.09,4.09,0,0,1,279.39,73c0,1.09-.61,1.81-1.53,1.81a6,6,0,0,1-2.38-.46,14.89,14.89,0,0,0-5.08-.72l-1.1,0c-2,.06-4.48.23-6.32.43a13.92,13.92,0,0,0-3.07.75,2.1,2.1,0,0,1-.72.17c-.37,0-.54,0-1.12-.49a10.34,10.34,0,0,1-2.7-3.64,1.8,1.8,0,0,1-.2-.58.28.28,0,0,1,.26-.28A.79.79,0,0,1,255.77,70.06Zm3.37-9.16a5.69,5.69,0,0,0,2.64.37c.34,0,.75,0,1.32,0a36.75,36.75,0,0,0,7.18-1.32,5.49,5.49,0,0,1,1.15-.23,6.35,6.35,0,0,1,3.42,1.55,1.29,1.29,0,0,1,.66,1.12,1.59,1.59,0,0,1-1.24,1.58c-3.5.26-6.8.52-9,.58-1.52,0-2.52,0-3.73,0a1.15,1.15,0,0,1-1-.52c-.71-.81-1.52-1.78-1.89-2.27-.23-.29-.32-.43-.32-.55a.36.36,0,0,1,.38-.4A1.13,1.13,0,0,1,259.14,60.9Z"/><path class="cls-1" d="M283.3,63.86a14.62,14.62,0,0,0,2.18.14c.87,0,2.19-.09,3.48-.2,2.84-.26,6.66-.66,9.62-.95a12.74,12.74,0,0,0,3.56-.89,1.5,1.5,0,0,1,.58-.17,3,3,0,0,1,.69.14c.34.12.8.26,1.26.4a4.38,4.38,0,0,1,1.44.81,2.32,2.32,0,0,1,.77,1.69,1.33,1.33,0,0,1-1.46,1.27c-.32,0-1-.12-1.84-.2a27.74,27.74,0,0,0-3.45-.23c-1.09,0-2.29,0-3.56.11A9.3,9.3,0,0,1,298.09,67c.32.31.46.51.46.83a4.49,4.49,0,0,1-.28,1.49,15.41,15.41,0,0,1-5,7.1c-2.3,1.84-5.52,2.78-9.77,2.78-.57,0-.72-.11-.72-.25s.12-.26.66-.41a17.31,17.31,0,0,0,7.18-4.31A14.18,14.18,0,0,0,294.93,66a57.07,57.07,0,0,0-8.67,1.5,12.82,12.82,0,0,1-1.47.34,1.08,1.08,0,0,1-.8-.46,14.88,14.88,0,0,1-1.7-2.47,1.69,1.69,0,0,1-.2-.75.37.37,0,0,1,.41-.4A4.83,4.83,0,0,1,283.3,63.86Zm3.82-7.1a7.34,7.34,0,0,0,1.18.09c.43,0,1.09-.06,1.95-.15a57.78,57.78,0,0,0,6-.91,5.11,5.11,0,0,0,1.64-.64,1.37,1.37,0,0,1,.63-.26,1.84,1.84,0,0,1,.72.21c2.41.92,3.1,1.55,3.1,2.58,0,.83-.34,1.29-2.21,1.35a81.39,81.39,0,0,0-9.65.75,10.84,10.84,0,0,1-1.41.17c-.8,0-1.58-.63-2.58-2.36a1.69,1.69,0,0,1-.29-.6.33.33,0,0,1,.35-.29A5.29,5.29,0,0,1,287.12,56.76Z"/><path class="cls-1" d="M322.23,61.36a5,5,0,0,1,.83.63,1.82,1.82,0,0,1,.69,1.09.78.78,0,0,1-.55.81,3.82,3.82,0,0,0-1.2,1c-.84,1-1.7,1.87-2.62,2.81a2.25,2.25,0,0,1,.92,1.73c0,.26,0,.57-.05,1s0,.8,0,1.17c0,1.35,0,2.93.11,3.57,0,.34,0,.71,0,1.06,0,1.81-1,3.39-2.18,3.39A1.47,1.47,0,0,1,317,79a1.88,1.88,0,0,1-.46-1.29,4.33,4.33,0,0,1,.11-1,25,25,0,0,0,.41-4.79,17.59,17.59,0,0,0-.12-2.42A23.68,23.68,0,0,1,311,72.62a11.32,11.32,0,0,1-3.11.77c-.34,0-.48-.08-.48-.23s0-.2.4-.37a27.81,27.81,0,0,0,5.05-3.5,55.38,55.38,0,0,0,4.8-4.6c.78-.83,1.35-1.49,2-2.3a.35.35,0,0,0,.09-.2c0-.06,0-.08-.09-.14s-.34-.32-.46-.43a.41.41,0,0,1-.14-.29.36.36,0,0,1,.17-.29c.26-.2.58-.46.83-.63a.58.58,0,0,1,.35-.14.54.54,0,0,1,.34.14C321.48,60.9,322,61.24,322.23,61.36Z"/><path class="cls-1" d="M329,58.63a4.22,4.22,0,0,0,1.23.2,33.48,33.48,0,0,0,3.85-.17c2.64-.29,5.4-.63,8.88-1.09a2.31,2.31,0,0,0,1.49-.61,1.15,1.15,0,0,1,.66-.31,1.85,1.85,0,0,1,.8.26,20.26,20.26,0,0,1,2.85,1.66c.49.35.72.69.72,1a1.21,1.21,0,0,1-.38.86,7.1,7.1,0,0,1-.95,1,3.55,3.55,0,0,0-.86,1.26,27.76,27.76,0,0,1-6.34,9.54A30.6,30.6,0,0,1,329,78.51a.25.25,0,0,1-.17-.46,36.24,36.24,0,0,0,8.5-7.18,39.85,39.85,0,0,0,5.69-8.94,3,3,0,0,0,.32-1c0-.17-.12-.25-.32-.25a10.66,10.66,0,0,0-1.58.11c-2.87.43-6.12,1.06-7.61,1.44a4.82,4.82,0,0,0-1.12.4,1.68,1.68,0,0,1-.69.2,1.07,1.07,0,0,1-.66-.32,21,21,0,0,1-2.88-3.33,1.12,1.12,0,0,1-.2-.51c0-.09.09-.21.18-.21A2.23,2.23,0,0,1,329,58.63Z"/><path class="cls-1" d="M366.07,65.09a1.15,1.15,0,0,0,.23-.57c0-.09-.08-.17-.28-.17a15.49,15.49,0,0,0-1.67.14,66.64,66.64,0,0,0-8.3,1.58,3.9,3.9,0,0,1-.95.14,1.23,1.23,0,0,1-.86-.37,9.2,9.2,0,0,1-1.72-2.18,1,1,0,0,1-.15-.52.31.31,0,0,1,.29-.26,1.48,1.48,0,0,1,.55.14,3.53,3.53,0,0,0,1.55.23,14.79,14.79,0,0,0,1.63-.11l8.62-1a8.56,8.56,0,0,0,1.9-.43,2.12,2.12,0,0,1,.77-.17,3.21,3.21,0,0,1,2.24,1.06c1.27,1,1.76,1.72,1.76,2.56a1.32,1.32,0,0,1-.29.92,1,1,0,0,1-.78.28,3.85,3.85,0,0,0-2.24.66A25.88,25.88,0,0,1,364,69.2c-.58,3.68-1.58,5.83-3.36,7.5-1.61,1.49-3.54,2.38-6.7,3a.22.22,0,0,1-.23-.23.26.26,0,0,1,.2-.23,11.37,11.37,0,0,0,4.75-4.26,11.85,11.85,0,0,0,1.92-6,3.07,3.07,0,0,0-1.38-2.58A.46.46,0,0,1,359,66c0-.14.11-.23.31-.23a6.27,6.27,0,0,1,2.76.6A7.49,7.49,0,0,1,363.81,68,11.59,11.59,0,0,0,366.07,65.09Z"/><path class="cls-1" d="M376.16,65a18.73,18.73,0,0,0,5.55.58c2.7,0,5.77-.12,8.58-.26,1.36-.09,2.76-.23,4.06-.43a5.37,5.37,0,0,1,1-.11,2.17,2.17,0,0,1,1.21.45,3.2,3.2,0,0,1,1.52,2.56c0,.89-.69,1.44-1.75,1.44a7.5,7.5,0,0,1-1.12-.12,38,38,0,0,0-5.52-.37,65.91,65.91,0,0,0-10.68.72,4.9,4.9,0,0,1-.81.11c-.23,0-.34-.06-.57-.34a13,13,0,0,1-1.9-3.57,1.86,1.86,0,0,1-.14-.54.2.2,0,0,1,.23-.2A1.39,1.39,0,0,1,376.16,65Z"/><path class="cls-1" d="M401.94,59a10,10,0,0,0,3.9.61c1.41,0,3.05-.06,4.71-.17,6.29-.52,8.51-.9,10.09-1.59a1.83,1.83,0,0,1,.77-.23,1.51,1.51,0,0,1,.72.26,14.91,14.91,0,0,1,3,2.21c.52.52.72.87.72,1.21,0,.84-.23,1.24-2.65,2.1A3.7,3.7,0,0,0,422,64a57.4,57.4,0,0,1-7.67,5.74c2.44,2.19,3,3.19,3,4.51,0,1.87-1.12,3.39-2.33,3.39a2.29,2.29,0,0,1-2.36-1.75c-1.95-4.83-3.47-7.09-5.65-9.16-.32-.32-.38-.4-.38-.55a.21.21,0,0,1,.23-.2,4.5,4.5,0,0,1,.84.14,14.54,14.54,0,0,1,5.31,2.47,65.27,65.27,0,0,0,4.62-5.68,1.77,1.77,0,0,0,.38-.75c0-.2-.15-.29-.4-.29a60.54,60.54,0,0,0-13.22,1.76,4.07,4.07,0,0,1-.69.14c-.57,0-.86-.17-1.23-.89a21.75,21.75,0,0,1-1.3-3.13,3,3,0,0,1-.14-.69.29.29,0,0,1,.32-.32A2.62,2.62,0,0,1,401.94,59Z"/><path class="cls-1" d="M432,72.56a1.71,1.71,0,0,0,1.44,1.67,3.21,3.21,0,0,0,.94-.23A72.54,72.54,0,0,0,445,68.94a27.88,27.88,0,0,0,6.7-5,.39.39,0,0,1,.28-.17.21.21,0,0,1,.23.23c0,.06,0,.17-.05.29-.43,2.07-1.7,4.1-4.4,6.52a26.63,26.63,0,0,1-7.27,4.59c-2,.95-4,1.78-6.34,2.73a3.76,3.76,0,0,1-1.41.35c-.37,0-.66-.2-1.24-.89-.43-.52-.92-1.12-1.38-1.78a1.53,1.53,0,0,1-.37-1,4.58,4.58,0,0,1,1.47-2.53c.23-.2.4-.34.6-.34S432,72.13,432,72.56Zm4.83-7.47a2.8,2.8,0,0,1,1.32,2.42,1.71,1.71,0,0,1-1.73,1.78,2.2,2.2,0,0,1-1.84-1A11.63,11.63,0,0,0,430.55,65c-.34-.17-.48-.26-.48-.46s.11-.29.46-.32c.6-.06,1.29-.11,1.92-.11C434.86,64.09,435.9,64.4,436.85,65.09Zm3.67-5.4c0,1.09-.6,1.87-1.46,1.87a3.17,3.17,0,0,1-1.87-1,13.85,13.85,0,0,0-4.65-2.93c-.35-.11-.52-.23-.52-.4s.11-.28.49-.37a13.33,13.33,0,0,1,3.1-.49C438.91,56.33,440.52,57.45,440.52,59.69Z"/><path class="cls-1" d="M456.61,65a18.73,18.73,0,0,0,5.55.58c2.7,0,5.77-.12,8.59-.26,1.35-.09,2.75-.23,4.05-.43a5.37,5.37,0,0,1,1-.11,2.14,2.14,0,0,1,1.21.45,3.2,3.2,0,0,1,1.52,2.56c0,.89-.69,1.44-1.75,1.44a7.5,7.5,0,0,1-1.12-.12,37.9,37.9,0,0,0-5.52-.37,65.91,65.91,0,0,0-10.68.72,4.9,4.9,0,0,1-.81.11c-.23,0-.34-.06-.57-.34a13.25,13.25,0,0,1-1.9-3.57,1.86,1.86,0,0,1-.14-.54.2.2,0,0,1,.23-.2A1.3,1.3,0,0,1,456.61,65Z"/><path class="cls-2" d="M84,36.78C81.22,29.3,68.67,27,56,31.72a40.58,40.58,0,0,0-5.8,2.66,45.08,45.08,0,0,0,1.11-9.94C51.31,11,45.86,0,39.08,0S26.77,10.87,26.71,24.34a43.22,43.22,0,0,0,1.87,13.09,49.69,49.69,0,0,0-4.77-2.11C12.69,31.11,2.16,31.7.29,36.65S5.91,49,17,53.24a45.28,45.28,0,0,0,7.91,2.22,37.74,37.74,0,0,0-6.28,12.7c-3.74,13.08-.54,25.47,7.16,27.68s17-6.62,20.71-19.7a36.8,36.8,0,0,0,1.23-15.39c5.14,1,11.63.46,18.17-2C78.65,54.12,86.73,44.26,84,36.78ZM29.34,29c0-10.71,4.4-19.38,9.73-19.36s9.61,8.73,9.57,19.44a37.16,37.16,0,0,1-.6,6.58,26,26,0,0,0-9.28,9.63,27.88,27.88,0,0,0-8.22-6.78A35.1,35.1,0,0,1,29.34,29ZM40.76,49.43c2.78,1.59,4.58,5.16,5.13,9.68-3.49-.71-6.16-2.35-7.37-4.82a4.9,4.9,0,0,0,2-2.39A4.67,4.67,0,0,0,40.76,49.43Zm-.5,2.35a4,4,0,0,1-1.94,2.08l-.09-.21a7.54,7.54,0,0,1,0-4.92c.22,0,.43,0,.65,0h.26l.11,0a5.86,5.86,0,0,1,1,.39A3.89,3.89,0,0,1,40.26,51.78Zm-3-3.65c-2.47-.87-4.62-3.63-6-7.52A24.63,24.63,0,0,1,38.41,46a12.33,12.33,0,0,0-.72,2.12Zm.31.5a9.35,9.35,0,0,0,.33,5.12c0,.09.08.18.12.27-2.31,1.12-6,1.29-10.25.49,2.8-3.67,6.21-5.91,9.44-6Zm2.43,0,.08,0s0,0,0,.05Zm-.82-.26c-.26-.07-.53-.12-.79-.17A11.1,11.1,0,0,1,39,46.82a8.89,8.89,0,0,1,.9,1.5A4.8,4.8,0,0,1,39.18,48.41Zm.21-2.24a22.56,22.56,0,0,1,7.91-7.39c-1.45,4.95-3.95,8.5-6.87,9.41A10.22,10.22,0,0,0,39.39,46.17Zm-17.8,6.59C12.74,49.41,6.77,43.54,8.25,39.65s9.83-4.33,18.67-1c.86.33,1.68.67,2.47,1,1.69,4.18,4.07,7.22,6.8,8.45-3.47.28-7,2.45-10.16,6A37.5,37.5,0,0,1,21.59,52.76Zm23.22,18c-3,10.41-10.3,17.45-16.35,15.71s-8.54-11.57-5.56-22a31.07,31.07,0,0,1,4-8.72c4.78.62,8.85.18,11.35-1.28,1.33,2.79,4.12,4.77,7.78,5.83A30.59,30.59,0,0,1,44.81,70.76ZM60.48,57.55a28.87,28.87,0,0,1-13,1.81c-1-5-3.41-8.81-6.84-10.42,0-.13-.08-.26-.12-.39,3.62-.95,6.74-5,8.67-10.81a34.38,34.38,0,0,1,3.43-1.48c10.12-3.73,20.08-2,22.24,3.89S70.6,53.82,60.48,57.55Z"/><path class="cls-2" d="M74.13,75.05a7.32,7.32,0,1,0-7.32,7.31A7.32,7.32,0,0,0,74.13,75.05Zm-3.94-.72a3.42,3.42,0,0,0-3.35-3.1.88.88,0,0,1,.08-1.75,5.14,5.14,0,0,1,5,4.7.87.87,0,0,1-.79.95A.88.88,0,0,1,70.19,74.33ZM70.73,77a.79.79,0,1,1,.78.79A.78.78,0,0,1,70.73,77Z"/><path class="cls-2" d="M73.61,88.05a4.27,4.27,0,1,0,4.27,4.27A4.27,4.27,0,0,0,73.61,88.05Z"/></g></g></svg>